HIERARCHY
ROOT Hips
{
	OFFSET 0.000000 0.000000 0.000000
	CHANNELS 6 Xposition Yposition Zposition Zrotation Yrotation Xrotation 
	JOINT LHipJoint
	{
		OFFSET 0.000000 0.000000 0.000000
		CHANNELS 3 Zrotation Yrotation Xrotation
		JOINT LeftUpLeg
		{
			OFFSET 1.363060 -1.794630 0.839290
			CHANNELS 3 Zrotation Yrotation Xrotation
			JOINT LeftLeg
			{
				OFFSET 2.448110 -6.726130 0.000000
				CHANNELS 3 Zrotation Yrotation Xrotation
				JOINT LeftFoot
				{
					OFFSET 2.562200 -7.039590 0.000000
					CHANNELS 3 Zrotation Yrotation Xrotation
					JOINT LeftToeBase
					{
						OFFSET 0.157640 -0.433110 2.322550
						CHANNELS 3 Zrotation Yrotation Xrotation
						End Site
						{
							OFFSET 0.000000 0.000000 0.000000
						}
					}
				}
			}
		}
	}
	JOINT RHipJoint
	{
		OFFSET 0.000000 0.000000 0.000000
		CHANNELS 3 Zrotation Yrotation Xrotation
		JOINT RightUpLeg
		{
			OFFSET -1.305520 -1.794630 0.839290
			CHANNELS 3 Zrotation Yrotation Xrotation
			JOINT RightLeg
			{
				OFFSET -2.542530 -6.985550 0.000000
				CHANNELS 3 Zrotation Yrotation Xrotation
				JOINT RightFoot
				{
					OFFSET -2.568260 -7.056230 0.000000
					CHANNELS 3 Zrotation Yrotation Xrotation
					JOINT RightToeBase
					{
						OFFSET -0.164730 -0.452590 2.363150
						CHANNELS 3 Zrotation Yrotation Xrotation
						End Site
						{
							OFFSET 0.000000 0.000000 0.000000
						}
					}
				}
			}
		}
	}
	JOINT LowerBack
	{
		OFFSET 0.000000 0.000000 0.000000
		CHANNELS 3 Zrotation Yrotation Xrotation
		JOINT Spine
		{
			OFFSET 0.028270 2.035590 -0.193380
			CHANNELS 3 Zrotation Yrotation Xrotation
			JOINT Spine1
			{
				OFFSET 0.056720 2.048850 -0.042750
				CHANNELS 3 Zrotation Yrotation Xrotation
				JOINT Neck
				{
					OFFSET 0.000000 0.000000 0.000000
					CHANNELS 3 Zrotation Yrotation Xrotation
					JOINT Neck1
					{
						OFFSET -0.054170 1.746240 0.172020
						CHANNELS 3 Zrotation Yrotation Xrotation
						JOINT Head
						{
							OFFSET 0.104070 1.761360 -0.123970
							CHANNELS 3 Zrotation Yrotation Xrotation
							End Site
							{
								OFFSET 0.000000 0.000000 0.000000
							}
						}
					}
				}
				JOINT LeftShoulder
				{
					OFFSET 0.000000 0.000000 0.000000
					CHANNELS 3 Zrotation Yrotation Xrotation
					JOINT LeftArm
					{
						OFFSET 3.362410 1.200890 -0.311210
						CHANNELS 3 Zrotation Yrotation Xrotation
						JOINT LeftForeArm
						{
							OFFSET 4.983000 -0.000000 -0.000000
							CHANNELS 3 Zrotation Yrotation Xrotation
							JOINT LeftHand
							{
								OFFSET 3.483560 -0.000000 -0.000000
								CHANNELS 3 Zrotation Yrotation Xrotation
								JOINT LeftFingerBase
								{
									OFFSET 0.000000 0.000000 0.000000
									CHANNELS 3 Zrotation Yrotation Xrotation
									JOINT LeftHandIndex1
									{
										OFFSET 0.715260 -0.000000 -0.000000
										CHANNELS 3 Zrotation Yrotation Xrotation
										End Site
										{
											OFFSET 0.000000 0.000000 0.000000
										}
									}
								}
								JOINT LThumb
								{
									OFFSET 0.000000 0.000000 0.000000
									CHANNELS 3 Zrotation Yrotation Xrotation
									End Site
									{
										OFFSET 0.000000 0.000000 0.000000
									}
								}
							}
						}
					}
				}
				JOINT RightShoulder
				{
					OFFSET 0.000000 0.000000 0.000000
					CHANNELS 3 Zrotation Yrotation Xrotation
					JOINT RightArm
					{
						OFFSET -3.136600 1.374050 -0.404650
						CHANNELS 3 Zrotation Yrotation Xrotation
						JOINT RightForeArm
						{
							OFFSET -5.241900 -0.000000 -0.000000
							CHANNELS 3 Zrotation Yrotation Xrotation
							JOINT RightHand
							{
								OFFSET -3.444170 -0.000000 -0.000000
								CHANNELS 3 Zrotation Yrotation Xrotation
								JOINT RightFingerBase
								{
									OFFSET 0.000000 0.000000 0.000000
									CHANNELS 3 Zrotation Yrotation Xrotation
									JOINT RightHandIndex1
									{
										OFFSET -0.622530 -0.000000 -0.000000
										CHANNELS 3 Zrotation Yrotation Xrotation
										End Site
										{
											OFFSET 0.000000 0.000000 0.000000
										}
									}
								}
								JOINT RThumb
								{
									OFFSET 0.000000 0.000000 0.000000
									CHANNELS 3 Zrotation Yrotation Xrotation
									End Site
									{
										OFFSET 0.000000 0.000000 0.000000
									}
								}
							}
						}
					}
				}
			}
		}
	}
}
MOTION
Frames: 8
Frame Time: 0.008333
-7.731824 17.981155 -2.011751 -143.107756 -81.460997 142.122184 -4.116902 2.927113 2.600911 -3.861529 -18.026511 -1.703216 -0.406755 9.105359 24.295306 -14.365905 34.809094 -14.849782 0.018800 -0.885300 -2.433200 3.982647 -3.065086 2.072422 12.749388 19.898573 -1.086416 1.625660 -8.222327 22.996094 7.835513 -24.071316 -15.180868 -0.023900 -0.998200 2.743900 2.505818 0.546562 4.839098 1.403815 0.729783 -0.069179 0.442077 0.456805 -0.658434 3.540425 1.194955 -12.196082 0.876620 1.436870 9.028346 -2.303800 0.874400 3.543300 -6.094920 -5.454584 1.872380 -17.374123 1.046396 -52.837689 9.094257 -14.073655 -3.889222 -0.046147 -3.546934 28.346711 -1.709483 14.047293 -0.985000 -7.125000 0.000000 0.000000 -28.652500 45.034100 -0.026400 7.555990 6.515611 4.238140 13.737983 -4.253905 -42.230755 -9.060810 13.529528 -3.159391 1.054041 2.044137 27.085964 -2.721836 -14.659867 0.799300 7.125000 0.000000 0.000000 23.326300 -45.568600 -0.346400 
-7.730376 17.981672 -2.007408 -142.559377 -81.512358 141.588824 -4.122632 2.925359 2.588693 -3.831915 -18.119620 -1.712307 -0.402015 9.113875 24.312817 -14.369259 34.809197 -14.839309 0.018400 -0.876200 -2.408200 3.979657 -3.056800 2.077618 12.762000 19.805976 -1.128292 1.626330 -8.216867 22.984213 7.845638 -24.095173 -15.170711 -0.023100 -0.982100 2.699500 2.517106 0.516654 4.867808 1.423394 0.692437 -0.074417 0.484254 0.434753 -0.678932 3.472968 1.187507 -12.309804 0.931427 1.431626 9.123493 -2.271400 0.875700 3.593900 -6.105319 -5.462471 1.883934 -17.343265 0.959909 -53.200284 9.023938 -13.912507 -3.817489 -0.146919 -3.619209 28.762926 -1.694964 14.874919 -1.021700 -7.125000 0.000000 0.000000 -29.053200 45.855900 -0.670800 7.560393 6.523173 4.236601 13.719565 -4.267736 -42.147187 -9.080877 13.562493 -3.170816 1.053878 2.047446 26.953776 -2.763925 -14.660411 0.812800 7.125000 0.000000 0.000000 23.287400 -45.577200 -0.351000 
-7.730066 17.981465 -2.002238 -142.199835 -81.588857 141.244689 -4.135358 2.920420 2.573247 -3.843162 -18.215280 -1.717251 -0.400333 9.122781 24.334646 -14.364244 34.799969 -14.844708 0.018400 -0.875400 -2.406100 3.973386 -3.050729 2.087266 12.729696 19.718568 -1.172696 1.626557 -8.211564 22.975197 7.847135 -24.096166 -15.181274 -0.023900 -0.998400 2.744300 2.483830 0.474139 4.890938 1.442070 0.634113 -0.091900 0.536949 0.405385 -0.715369 3.509921 1.202985 -12.244884 0.843974 1.459450 9.074876 -2.305600 0.884900 3.567500 -6.118089 -5.467031 1.888148 -17.348150 0.957746 -53.624842 8.964756 -13.770480 -3.759335 -0.205351 -3.675129 29.117356 -1.795609 15.455226 -1.087700 -7.125000 0.000000 0.000000 -29.453800 46.410600 -1.122000 7.565803 6.530929 4.238738 13.664197 -4.204065 -42.227539 -9.083651 13.556634 -3.172718 1.062381 2.057557 27.060579 -2.729294 -14.751723 0.807100 7.125000 0.000000 0.000000 23.362500 -45.668400 -0.407900 
-7.728205 17.981361 -1.994482 -141.754728 -81.689856 140.818121 -4.151913 2.916879 2.555209 -3.867874 -18.345660 -1.713326 -0.401433 9.131735 24.355015 -14.355674 34.786132 -14.861043 0.017900 -0.863300 -2.372900 3.966971 -3.042019 2.100518 12.675148 19.592195 -1.238237 1.623156 -8.205709 22.960967 7.873693 -24.144019 -15.137075 -0.022600 -0.971200 2.669500 2.480650 0.427768 4.938121 1.447244 0.574492 -0.120096 0.555144 0.375855 -0.783522 3.507761 1.209420 -12.221090 0.840781 1.468722 9.071813 -2.304300 0.889300 3.563300 -6.129575 -5.470348 1.890355 -17.342507 0.944847 -54.084556 8.910664 -13.637843 -3.709998 -0.231114 -3.700491 29.494909 -1.940376 15.723291 -1.155100 -7.125000 0.000000 0.000000 -29.734600 46.644600 -1.322100 7.568450 6.534589 4.239293 13.637972 -4.198761 -42.139565 -9.094870 13.578672 -3.178261 1.058200 2.037995 27.019653 -2.841816 -14.600638 0.834000 7.125000 0.000000 0.000000 23.187000 -45.526500 -0.318700 
-7.725620 17.981775 -1.989002 -141.355235 -81.701254 140.444265 -4.154686 2.908862 2.545511 -3.831182 -18.391256 -1.747839 -0.398232 9.137581 24.377186 -14.336833 34.741885 -14.879284 0.016500 -0.829500 -2.279900 3.967189 -3.035582 2.100298 12.685890 19.552990 -1.277191 1.626457 -8.199826 22.945550 7.871034 -24.137620 -15.137265 -0.023700 -0.992900 2.729300 2.478353 0.402622 4.955204 1.471593 0.541042 -0.122096 0.587569 0.359238 -0.791777 3.577833 1.228216 -12.177712 0.763170 1.491560 8.964246 -2.345200 0.894400 3.524100 -6.123861 -5.465088 1.886874 -17.411078 0.994263 -54.045941 8.932797 -13.670668 -3.720037 -0.227350 -3.739180 29.114974 -2.002093 15.968709 -1.192200 -7.125000 0.000000 0.000000 -29.934200 46.887200 -1.528100 7.564918 6.529897 4.239513 13.642924 -4.178790 -42.056284 -9.105479 13.599800 -3.181250 1.057304 2.023536 26.960194 -2.929317 -14.516577 0.857100 7.125000 0.000000 0.000000 23.063100 -45.448600 -0.269900 
-7.723655 17.981879 -1.982694 -140.964820 -81.751045 140.073099 -4.163305 2.902983 2.532120 -3.825351 -18.470622 -1.764184 -0.396550 9.145324 24.399796 -14.323256 34.713336 -14.895667 0.015700 -0.809900 -2.225900 3.964740 -3.028833 2.106273 12.665900 19.479164 -1.323938 1.627044 -8.193462 22.928859 7.882578 -24.158226 -15.118535 -0.023600 -0.991600 2.725700 2.474380 0.372612 4.985812 1.487117 0.501985 -0.131976 0.611795 0.339633 -0.821382 3.605186 1.237166 -12.152512 0.722706 1.502889 8.902575 -2.364700 0.896300 3.501500 -6.124162 -5.465119 1.886885 -17.455103 1.003027 -54.212944 8.927973 -13.639798 -3.706618 -0.241044 -3.770596 29.099545 -2.081948 16.237315 -1.237700 -7.125000 0.000000 0.000000 -30.161600 47.139600 -1.746900 7.562674 6.529330 4.239485 13.639456 -4.168293 -41.994744 -9.121773 13.625105 -3.187967 1.056538 2.016835 26.918450 -2.981109 -14.474019 0.870800 7.125000 0.000000 0.000000 22.994200 -45.410400 -0.246100 
-7.721587 17.981879 -1.976283 -140.606465 -81.794486 139.735089 -4.171400 2.897063 2.519857 -3.820364 -18.542275 -1.780932 -0.395669 9.151849 24.420054 -14.307827 34.681145 -14.914374 0.014900 -0.787700 -2.164800 3.962821 -3.022533 2.111410 12.645104 19.413551 -1.368954 1.627585 -8.187417 22.912407 7.894781 -24.180109 -15.098406 -0.023500 -0.990300 2.722100 2.473081 0.347440 5.018089 1.502034 0.469490 -0.140531 0.629148 0.323730 -0.850385 3.638945 1.244110 -12.116997 0.676893 1.510143 8.820239 -2.388300 0.895200 3.470500 -6.121037 -5.463916 1.885262 -17.517066 1.021274 -54.294355 8.940300 -13.644606 -3.707061 -0.240322 -3.793522 28.994291 -2.157608 16.404794 -1.276600 -7.125000 0.000000 0.000000 -30.330800 47.293200 -1.883900 7.558251 6.526539 4.239158 13.646140 -4.164256 -41.933361 -9.140165 13.652801 -3.194933 1.054775 2.010398 26.876245 -3.025004 -14.433377 0.881900 7.125000 0.000000 0.000000 22.933800 -45.372700 -0.222900 
-7.719622 17.981879 -1.969872 -140.280228 -81.830310 139.429124 -4.178779 2.891187 2.508857 -3.814791 -18.605171 -1.798820 -0.394970 9.157505 24.438554 -14.292446 34.648997 -14.932907 0.014100 -0.765500 -2.103700 3.961270 -3.016200 2.115065 12.625612 19.356455 -1.413409 1.627301 -8.183342 22.901397 7.905918 -24.199774 -15.079308 -0.023500 -0.988700 2.717800 2.473763 0.327387 5.051025 1.516248 0.444275 -0.146958 0.640725 0.311630 -0.877062 3.668361 1.249551 -12.083238 0.640006 1.513696 8.727972 -2.409000 0.892100 3.436600 -6.114493 -5.462227 1.882681 -17.593730 1.042398 -54.304869 8.968619 -13.681317 -3.719867 -0.228516 -3.807268 28.838239 -2.223226 16.479324 -1.306800 -7.125000 0.000000 0.000000 -30.438700 47.356800 -1.944100 7.551691 6.521681 4.238273 13.665288 -4.169391 -41.866971 -9.161935 13.684823 -3.202986 1.052177 2.005275 26.823750 -3.059640 -14.401645 0.890500 7.125000 0.000000 0.000000 22.886300 -45.342400 -0.204300 
